<svg width="32" height="32" viewBox="0 0 32 32" fill="none" xmlns="http://www.w3.org/2000/svg">
  <defs>
    <linearGradient id="faviconGradient" x1="0%" y1="0%" x2="100%" y2="100%">
      <stop offset="0%" style="stop-color:#3B82F6;stop-opacity:1" />
      <stop offset="50%" style="stop-color:#8B5CF6;stop-opacity:1" />
      <stop offset="100%" style="stop-color:#EC4899;stop-opacity:1" />
    </linearGradient>
  </defs>
  
  <!-- Background circle -->
  <circle cx="16" cy="16" r="15" fill="url(#faviconGradient)"/>
  
  <!-- Cloud icon -->
  <path d="M10 18C8.89543 18 8 17.1046 8 16C8 14.8954 8.89543 14 10 14C10.1762 14 10.3436 14.0243 10.5043 14.0691C10.7895 12.2877 12.2956 11 14.125 11C16.1931 11 17.875 12.6819 17.875 14.75C17.875 14.8241 17.8731 14.8978 17.8695 14.9712C18.8521 15.3345 19.5 16.2573 19.5 17.375C19.5 18.8257 18.3257 20 16.875 20H11C10.4477 20 10 19.5523 10 19V18Z" fill="white"/>
  
  <!-- Download arrow -->
  <g transform="translate(13, 15)">
    <path d="M3 0V4M3 4L1.5 2.5M3 4L4.5 2.5" stroke="#3B82F6" stroke-width="1.2" stroke-linecap="round" stroke-linejoin="round"/>
    <path d="M0.5 6H5.5" stroke="#3B82F6" stroke-width="1.2" stroke-linecap="round"/>
  </g>
</svg>
