<svg width="180" height="40" viewBox="0 0 180 40" fill="none" xmlns="http://www.w3.org/2000/svg">
  <!-- Background gradient -->
  <defs>
    <linearGradient id="logoGradient" x1="0%" y1="0%" x2="100%" y2="100%">
      <stop offset="0%" style="stop-color:#3B82F6;stop-opacity:1" />
      <stop offset="50%" style="stop-color:#8B5CF6;stop-opacity:1" />
      <stop offset="100%" style="stop-color:#EC4899;stop-opacity:1" />
    </linearGradient>
    <linearGradient id="textGradient" x1="0%" y1="0%" x2="100%" y2="0%">
      <stop offset="0%" style="stop-color:#1F2937;stop-opacity:1" />
      <stop offset="100%" style="stop-color:#4B5563;stop-opacity:1" />
    </linearGradient>
  </defs>
  
  <!-- Logo icon -->
  <g transform="translate(4, 6)">
    <!-- Cloud shape -->
    <path d="M8 16C5.79086 16 4 14.2091 4 12C4 9.79086 5.79086 8 8 8C8.35064 8 8.68722 8.04866 9.00851 8.13818C9.57891 5.57701 11.8273 3.66667 14.5 3.66667C17.6312 3.66667 20.1667 6.20215 20.1667 9.33333C20.1667 9.44819 20.1631 9.56234 20.1562 9.67569C21.7041 10.2691 22.8333 11.7573 22.8333 13.5C22.8333 15.7091 21.0425 17.5 18.8333 17.5H9C8.44772 17.5 8 17.0523 8 16.5V16Z" fill="url(#logoGradient)"/>
    
    <!-- Download arrow -->
    <g transform="translate(12, 9)">
      <path d="M3 0V6M3 6L1 4M3 6L5 4" stroke="white" stroke-width="1.5" stroke-linecap="round" stroke-linejoin="round"/>
      <path d="M0 8H6" stroke="white" stroke-width="1.5" stroke-linecap="round"/>
    </g>
  </g>
  
  <!-- Company name -->
  <text x="40" y="25" font-family="Arial, sans-serif" font-size="16" font-weight="700" fill="url(#textGradient)">
    DownloadHub
  </text>
  
  <!-- Tagline -->
  <text x="40" y="35" font-family="Arial, sans-serif" font-size="8" font-weight="400" fill="#6B7280">
    Secure File Center
  </text>
</svg>
